<?xml version="1.0" encoding="UTF-8" standalone="no"?>
<!-- Created with Inkscape (http://www.inkscape.org/) -->

<svg
   width="512"
   height="512"
   viewBox="0 0 512 512"
   version="1.1"
   id="svg1"
   inkscape:export-filename="..\tile_highlight.svg"
   inkscape:export-xdpi="96"
   inkscape:export-ydpi="96"
   inkscape:version="1.3.2 (091e20e, 2023-11-25, custom)"
   sodipodi:docname="development.svg"
   xml:space="preserve"
   xmlns:inkscape="http://www.inkscape.org/namespaces/inkscape"
   xmlns:sodipodi="http://sodipodi.sourceforge.net/DTD/sodipodi-0.dtd"
   xmlns="http://www.w3.org/2000/svg"
   xmlns:svg="http://www.w3.org/2000/svg"><sodipodi:namedview
     id="namedview1"
     pagecolor="#505050"
     bordercolor="#eeeeee"
     borderopacity="1"
     inkscape:showpageshadow="0"
     inkscape:pageopacity="0"
     inkscape:pagecheckerboard="0"
     inkscape:deskcolor="#505050"
     inkscape:document-units="px"
     inkscape:zoom="0.5"
     inkscape:cx="-27"
     inkscape:cy="-55"
     inkscape:window-width="1920"
     inkscape:window-height="1009"
     inkscape:window-x="-8"
     inkscape:window-y="-8"
     inkscape:window-maximized="1"
     inkscape:current-layer="layer1"
     showguides="false" /><defs
     id="defs1" /><g
     inkscape:label="Warstwa 1"
     inkscape:groupmode="layer"
     id="layer1"><path
       id="path1"
       style="fill:#000000;fill-opacity:0.39575;stroke-width:12.6655;stroke-linecap:round;stroke-linejoin:round"
       d="M 256,105.59798 A 150.40202,150.40202 0 0 0 105.59798,256 150.40202,150.40202 0 0 0 256,406.40202 150.40202,150.40202 0 0 0 406.40202,256 150.40202,150.40202 0 0 0 256,105.59798 Z m 0,60.9524 A 89.449622,89.449622 0 0 1 345.44962,256 89.449622,89.449622 0 0 1 256,345.44962 89.449622,89.449622 0 0 1 166.55038,256 89.449622,89.449622 0 0 1 256,166.55038 Z" /></g></svg>
