<?xml version="1.0" encoding="UTF-8" standalone="no"?>
<!-- Created with Inkscape (http://www.inkscape.org/) -->

<svg
   width="512"
   height="512"
   viewBox="0 0 512 512"
   version="1.1"
   id="svg1"
   inkscape:export-filename="rook_0.svg"
   inkscape:export-xdpi="96"
   inkscape:export-ydpi="96"
   inkscape:version="1.3.2 (091e20e, 2023-11-25, custom)"
   sodipodi:docname="development.svg"
   xml:space="preserve"
   xmlns:inkscape="http://www.inkscape.org/namespaces/inkscape"
   xmlns:sodipodi="http://sodipodi.sourceforge.net/DTD/sodipodi-0.dtd"
   xmlns="http://www.w3.org/2000/svg"
   xmlns:svg="http://www.w3.org/2000/svg"><sodipodi:namedview
     id="namedview1"
     pagecolor="#505050"
     bordercolor="#eeeeee"
     borderopacity="1"
     inkscape:showpageshadow="0"
     inkscape:pageopacity="0"
     inkscape:pagecheckerboard="0"
     inkscape:deskcolor="#505050"
     inkscape:document-units="px"
     inkscape:zoom="0.39697266"
     inkscape:cx="-64.236162"
     inkscape:cy="358.96679"
     inkscape:window-width="1920"
     inkscape:window-height="1009"
     inkscape:window-x="-8"
     inkscape:window-y="-8"
     inkscape:window-maximized="1"
     inkscape:current-layer="layer1" /><defs
     id="defs1"><inkscape:path-effect
       effect="mirror_symmetry"
       start_point="256,0"
       end_point="256,512"
       center_point="256,256"
       id="path-effect32"
       is_visible="true"
       lpeversion="1.2"
       lpesatellites=""
       mode="vertical"
       discard_orig_path="false"
       fuse_paths="true"
       oposite_fuse="false"
       split_items="false"
       split_open="false"
       link_styles="false" /><inkscape:path-effect
       effect="mirror_symmetry"
       start_point="249.82227,450.61906"
       end_point="249.82227,-61.38094"
       center_point="249.82227,194.61906"
       id="path-effect15-5"
       is_visible="true"
       lpeversion="1.2"
       lpesatellites=""
       mode="vertical"
       discard_orig_path="false"
       fuse_paths="true"
       oposite_fuse="false"
       split_items="false"
       split_open="false"
       link_styles="false" /></defs><g
     inkscape:label="Warstwa 1"
     inkscape:groupmode="layer"
     id="layer1"><path
       id="rect4-4"
       style="fill:#763810;stroke:#461d0d;stroke-width:16;stroke-linecap:round;stroke-linejoin:round"
       d="m 172.28125,415.89062 h 167.4375 c 10.36152,10e-6 18.70311,8.34159 18.70311,18.70311 0,10.36152 -8.34159,18.70311 -18.70311,18.7031 h -167.4375 c -10.36152,0 -18.7031,-8.34158 -18.7031,-18.7031 0,-10.36152 8.34158,-18.70311 18.7031,-18.70311 z"
       sodipodi:nodetypes="sssssss" /><path
       id="path32"
       style="fill:#763810;stroke:#461d0d;stroke-width:16;stroke-linecap:round;stroke-linejoin:round;stroke-dasharray:none"
       d="m 256,67.6875 c -1.20681,0 -18.64741,9.345986 -34.62305,24.203125 l 27.95313,34.001955 c 2.6633,3.23975 2.19873,7.99295 -1.04102,10.65625 -3.23975,2.6633 -7.99099,2.19873 -10.65429,-1.04102 l -26.79102,-32.58984 c -9.22619,11.02748 -16.17969,23.96411 -16.17969,37.80078 0,40.33388 27.46114,73.03125 61.33594,73.03125 33.8748,0 61.33594,-32.69737 61.33594,-73.03125 0,-40.33388 -59.07822,-73.03125 -61.33594,-73.03125 z" /><path
       style="fill:#763810;stroke:#461d0d;stroke-width:16;stroke-linecap:round;stroke-linejoin:round;stroke-dasharray:none"
       d="m 210.81445,224.66992 -14.32812,14.32617 v 10.07618 h 53.33594 53.33593 v -10.07618 l -14.32812,-14.32617 -39.00781,0.13477 z"
       id="path6"
       inkscape:path-effect="#path-effect15-5"
       inkscape:original-d="M 256,249.07257 H 196.48709 V 238.99631 L 210.81427,224.66913 256,224.82657 Z"
       transform="matrix(1,0,0,-1,6.1777344,450.61906)" /><path
       style="fill:#763810;stroke:#461d0d;stroke-width:16;stroke-linecap:round;stroke-linejoin:round;stroke-dasharray:none"
       d="m 256,225.81445 -39.00781,0.13477 c 0,108.18273 -44.71094,189.9414 -44.71094,189.9414 H 256 339.71875 c 0,10e-6 -44.71094,-81.75867 -44.71094,-189.9414 z"
       id="path31"
       inkscape:path-effect="#path-effect32"
       inkscape:original-d="m 172.28125,415.89062 c 0,0 44.71094,-81.75864 44.71094,-189.94148 L 256,225.81437 v 190.07625 z" /><circle
       style="fill:#763810;stroke:#461d0d;stroke-width:16;stroke-linecap:round;stroke-linejoin:round;stroke-dasharray:none"
       id="path35"
       cx="256"
       cy="49.424278"
       r="18.263222" /></g></svg>
