<?xml version="1.0" encoding="UTF-8" standalone="no"?>
<!-- Created with Inkscape (http://www.inkscape.org/) -->

<svg
   width="512"
   height="512"
   viewBox="0 0 512 512"
   version="1.1"
   id="svg1"
   inkscape:export-filename="queen_0.svg"
   inkscape:export-xdpi="96"
   inkscape:export-ydpi="96"
   inkscape:version="1.3.2 (091e20e, 2023-11-25, custom)"
   sodipodi:docname="king_0.svg"
   xml:space="preserve"
   xmlns:inkscape="http://www.inkscape.org/namespaces/inkscape"
   xmlns:sodipodi="http://sodipodi.sourceforge.net/DTD/sodipodi-0.dtd"
   xmlns="http://www.w3.org/2000/svg"
   xmlns:svg="http://www.w3.org/2000/svg"><sodipodi:namedview
     id="namedview1"
     pagecolor="#505050"
     bordercolor="#eeeeee"
     borderopacity="1"
     inkscape:showpageshadow="0"
     inkscape:pageopacity="0"
     inkscape:pagecheckerboard="0"
     inkscape:deskcolor="#505050"
     inkscape:document-units="px"
     inkscape:zoom="0.79394532"
     inkscape:cx="136.02952"
     inkscape:cy="130.36162"
     inkscape:window-width="1920"
     inkscape:window-height="1009"
     inkscape:window-x="-8"
     inkscape:window-y="-8"
     inkscape:window-maximized="1"
     inkscape:current-layer="layer1"
     showguides="false" /><defs
     id="defs1"><inkscape:path-effect
       effect="mirror_symmetry"
       start_point="256,-43.359076"
       end_point="256,517.19124"
       center_point="256,236.91608"
       id="path-effect47"
       is_visible="true"
       lpeversion="1.2"
       lpesatellites=""
       mode="vertical"
       discard_orig_path="false"
       fuse_paths="true"
       oposite_fuse="false"
       split_items="false"
       split_open="false"
       link_styles="false" /></defs><g
     inkscape:label="Warstwa 1"
     inkscape:groupmode="layer"
     id="layer1"><path
       style="fill:#763810;fill-opacity:1;stroke:#461d0d;stroke-width:14.8454;stroke-linecap:round;stroke-linejoin:round;stroke-dasharray:none;stroke-opacity:1"
       d="m 195.6126,198.97617 c 0,0 13.76142,-62.49306 60.3874,-62.49306 46.62598,0 62.5332,60.60118 62.5332,60.60118 L 256,328.97523 Z"
       id="path48" /><path
       style="fill:#763810;fill-opacity:1;stroke:#461d0d;stroke-width:16;stroke-linecap:round;stroke-linejoin:round;stroke-dasharray:none;stroke-opacity:1"
       d="M 147.08968,443.48825 C 149.89531,408.94149 139.8281,377.97969 131,357.79899 101.13252,289.52308 58.608134,294.76952 57.610913,225.5452 56.989482,182.40715 89.387159,147.21037 131,147.81118 c 68.80617,0.99344 115.02754,89.22038 125,168.99998 9.97245,-79.7796 56.19382,-168.00654 125,-168.99998 41.61284,-0.60081 74.01051,34.59597 73.38908,77.73402 -0.99722,69.22432 -43.5216,63.97788 -73.38908,132.25379 -8.8281,20.1807 -18.89531,51.1425 -16.08968,85.68926"
       id="path45"
       sodipodi:nodetypes="csssc"
       inkscape:path-effect="#path-effect47"
       inkscape:original-d="M 147.08968,443.48825 C 149.89531,408.94149 139.8281,377.97969 131,357.79899 101.13252,289.52308 58.608134,294.76952 57.610913,225.5452 56.989482,182.40715 89.387159,147.21037 131,147.81118 c 68.80618,0.99344 115.02755,89.22039 125,169"
       transform="matrix(0.94250763,0,0,0.91338812,14.718049,39.603665)" /><ellipse
       style="fill:#763810;fill-opacity:1;stroke:#461d0d;stroke-width:14.8454;stroke-linecap:round;stroke-linejoin:round;stroke-dasharray:none;stroke-opacity:1"
       id="path5"
       cx="256"
       cy="444.68057"
       rx="102.6488"
       ry="16.972345" /><path
       style="fill:#763810;fill-opacity:1;stroke:#461d0d;stroke-width:14.8454;stroke-linecap:round;stroke-linejoin:round;stroke-dasharray:none;stroke-opacity:1"
       d="m 133.20244,356.25917 c 0,0 19.12172,-27.28394 122.79756,-27.28394 103.67584,0 120.70467,31.34347 120.70467,31.34347"
       id="path47" /><path
       id="rect48"
       style="fill:#763810;fill-opacity:1;stroke:#461d0d;stroke-width:16;stroke-linecap:round;stroke-linejoin:round;stroke-dasharray:none;stroke-opacity:1"
       d="m 250.07031,52.580294 c -4.19394,0 -7.57031,3.376368 -7.57031,7.570312 V 81.1467 h -20.99609 c -4.19395,0 -7.57032,3.376368 -7.57032,7.570312 v 11.859378 c 0,4.19394 3.37637,7.57031 7.57032,7.57031 H 242.5 v 20.99609 c 0,4.19395 3.37637,7.57032 7.57031,7.57032 h 11.85938 c 4.19394,0 7.57031,-3.37637 7.57031,-7.57032 V 108.1467 h 20.99609 c 4.19395,0 7.57032,-3.37637 7.57032,-7.57031 V 88.717012 c 0,-4.193944 -3.37637,-7.570312 -7.57032,-7.570312 H 269.5 V 60.150606 c 0,-4.193944 -3.37637,-7.570312 -7.57031,-7.570312 z" /></g></svg>
